<svg width="71" height="70" viewBox="0 0 71 70" fill="none" xmlns="http://www.w3.org/2000/svg">
<path d="M0.5 35C0.5 54.299 16.201 70 35.5 70C54.799 70 70.5 54.299 70.5 35C70.5 15.701 54.799 0 35.5 0C16.201 0 0.5 15.701 0.5 35ZM18 35C18 34.0717 18.3688 33.1815 19.0251 32.5251C19.6815 31.8688 20.5717 31.5 21.5 31.5H32V21C32 20.0717 32.3688 19.1815 33.0251 18.5251C33.6815 17.8688 34.5717 17.5 35.5 17.5C36.4283 17.5 37.3185 17.8688 37.9749 18.5251C38.6312 19.1815 39 20.0717 39 21V31.5H49.5C50.4283 31.5 51.3185 31.8688 51.9749 32.5251C52.6312 33.1815 53 34.0717 53 35C53 35.9283 52.6312 36.8185 51.9749 37.4749C51.3185 38.1312 50.4283 38.5 49.5 38.5H39V49C39 49.9283 38.6312 50.8185 37.9749 51.4749C37.3185 52.1312 36.4283 52.5 35.5 52.5C34.5717 52.5 33.6815 52.1312 33.0251 51.4749C32.3688 50.8185 32 49.9283 32 49V38.5H21.5C20.5717 38.5 19.6815 38.1312 19.0251 37.4749C18.3688 36.8185 18 35.9283 18 35Z" fill="#FBA457"/>
</svg>
