<svg viewBox="0 0 9 9" fill="none" xmlns="http://www.w3.org/2000/svg">
<path d="M5.29416 4.5L8.82854 0.965616C8.88218 0.913807 8.92497 0.851834 8.9544 0.783312C8.98384 0.71479 8.99933 0.641092 8.99998 0.566518C9.00063 0.491944 8.98642 0.417988 8.95818 0.348964C8.92994 0.279941 8.88823 0.217233 8.8355 0.1645C8.78277 0.111766 8.72006 0.0700628 8.65104 0.0418232C8.58201 0.0135836 8.50806 -0.000626821 8.43348 2.12056e-05C8.35891 0.000669232 8.28521 0.0161627 8.21669 0.0455976C8.14817 0.0750324 8.08619 0.117819 8.03438 0.171461L4.5 3.70585L0.965616 0.171461C0.85969 0.0691545 0.71782 0.0125446 0.57056 0.0138242C0.423301 0.0151039 0.282435 0.0741707 0.178303 0.178303C0.0741707 0.282435 0.0151039 0.423301 0.0138242 0.57056C0.0125446 0.71782 0.0691545 0.85969 0.171461 0.965616L3.70585 4.5L0.171461 8.03438C0.117819 8.08619 0.0750324 8.14817 0.0455976 8.21669C0.0161627 8.28521 0.000669232 8.35891 2.12056e-05 8.43348C-0.000626821 8.50806 0.0135836 8.58201 0.0418232 8.65104C0.0700628 8.72006 0.111766 8.78277 0.1645 8.8355C0.217233 8.88823 0.279941 8.92994 0.348964 8.95818C0.417988 8.98642 0.491944 9.00063 0.566518 8.99998C0.641092 8.99933 0.71479 8.98384 0.783312 8.9544C0.851834 8.92497 0.913807 8.88218 0.965616 8.82854L4.5 5.29416L8.03438 8.82854C8.11272 8.90761 8.21282 8.96158 8.32194 8.98355C8.43105 9.00552 8.54424 8.99451 8.64707 8.95192C8.74991 8.90933 8.83773 8.83709 8.89936 8.7444C8.96098 8.65171 8.99362 8.54277 8.9931 8.43146C8.99311 8.35771 8.97859 8.28467 8.95035 8.21654C8.92211 8.14841 8.88072 8.08651 8.82854 8.03438L5.29416 4.5Z" fill="#FBA457"/>
</svg>
