<svg viewBox="0 0 12 7" fill="none" xmlns="http://www.w3.org/2000/svg">
<path d="M5.99985 6.99997C5.86851 7.00011 5.73844 6.97429 5.61712 6.92401C5.49579 6.87373 5.38559 6.79997 5.29285 6.70697L0.292849 1.70697C0.200004 1.61413 0.126356 1.5039 0.0761089 1.3826C0.0258618 1.26129 9.78277e-10 1.13127 0 0.999971C-9.78276e-10 0.868669 0.0258618 0.738653 0.0761089 0.617345C0.126356 0.496038 0.200005 0.385816 0.292849 0.292971C0.385694 0.200127 0.495916 0.126478 0.617223 0.076231C0.738531 0.0259839 0.868547 0.000122069 0.999849 0.00012207C1.13115 0.000122071 1.26117 0.0259839 1.38247 0.076231C1.50378 0.126478 1.614 0.200127 1.70685 0.292971L5.99985 4.58597L10.2928 0.292971C10.3857 0.200127 10.4959 0.126478 10.6172 0.076231C10.7385 0.0259839 10.8685 0.000122072 10.9998 0.00012207C11.1312 0.000122068 11.2612 0.0259839 11.3825 0.076231C11.5038 0.126478 11.614 0.200126 11.7068 0.292971C11.7997 0.385815 11.8733 0.496038 11.9236 0.617345C11.9738 0.738653 11.9997 0.868669 11.9997 0.999971C11.9997 1.13127 11.9738 1.26129 11.9236 1.3826C11.8733 1.5039 11.7997 1.61413 11.7068 1.70697L6.70685 6.70697C6.61411 6.79997 6.50391 6.87373 6.38258 6.92401C6.26125 6.97429 6.13118 7.00011 5.99985 6.99997Z" fill="#222222"/>
</svg>
