<svg width="17" height="17" viewBox="0 0 17 17" fill="none" xmlns="http://www.w3.org/2000/svg">
<path d="M9.87174 2.14941H4.53841C4.18479 2.14941 3.84565 2.28989 3.5956 2.53994C3.34555 2.78999 3.20508 3.12913 3.20508 3.48275V14.1494C3.20508 14.503 3.34555 14.8422 3.5956 15.0922C3.84565 15.3423 4.18479 15.4827 4.53841 15.4827H12.5384C12.892 15.4827 13.2312 15.3423 13.4812 15.0922C13.7313 14.8422 13.8717 14.503 13.8717 14.1494V6.14941L9.87174 2.14941Z" stroke="#909399" stroke-width="0.885058" stroke-linecap="round" stroke-linejoin="round"/>
<path d="M9.87402 2.14941V6.14941H13.874" stroke="#909399" stroke-width="0.885058" stroke-linecap="round" stroke-linejoin="round"/>
<path d="M11.2074 9.48279H5.87402" stroke="#909399" stroke-width="0.885058" stroke-linecap="round" stroke-linejoin="round"/>
<path d="M11.2074 12.1494H5.87402" stroke="#909399" stroke-width="0.885058" stroke-linecap="round" stroke-linejoin="round"/>
<path d="M7.20736 6.81604H6.54069H5.87402" stroke="#909399" stroke-width="0.885058" stroke-linecap="round" stroke-linejoin="round"/>
</svg>
