<svg width="14" height="20" viewBox="0 0 14 20" fill="none" xmlns="http://www.w3.org/2000/svg">
<path fill-rule="evenodd" clip-rule="evenodd" d="M8.379 0C8.77669 0.000350104 9.15797 0.158615 9.439 0.44L13.561 4.56C13.7004 4.69948 13.8109 4.86506 13.8862 5.04729C13.9616 5.22952 14.0002 5.42482 14 5.622V18.5C14 18.8978 13.842 19.2794 13.5607 19.5607C13.2794 19.842 12.8978 20 12.5 20H1.5C1.10218 20 0.720644 19.842 0.43934 19.5607C0.158035 19.2794 0 18.8978 0 18.5V1.5C0 1.10218 0.158035 0.720644 0.43934 0.43934C0.720644 0.158035 1.10218 0 1.5 0L8.379 0ZM7 6C7.26522 6 7.51957 6.10536 7.70711 6.29289C7.89464 6.48043 8 6.73478 8 7V10.586L9.293 9.293C9.38525 9.19749 9.49559 9.12131 9.6176 9.0689C9.7396 9.01649 9.87082 8.9889 10.0036 8.98775C10.1364 8.9866 10.2681 9.0119 10.391 9.06218C10.5139 9.11246 10.6255 9.18671 10.7194 9.28061C10.8133 9.3745 10.8875 9.48615 10.9378 9.60905C10.9881 9.73194 11.0134 9.86362 11.0123 9.9964C11.0111 10.1292 10.9835 10.2604 10.9311 10.3824C10.8787 10.5044 10.8025 10.6148 10.707 10.707L7.707 13.707C7.51947 13.8945 7.26516 13.9998 7 13.9998C6.73484 13.9998 6.48053 13.8945 6.293 13.707L3.293 10.707C3.11084 10.5184 3.01005 10.2658 3.01233 10.0036C3.0146 9.7414 3.11977 9.49059 3.30518 9.30518C3.49059 9.11977 3.7414 9.0146 4.0036 9.01233C4.2658 9.01005 4.5184 9.11084 4.707 9.293L6 10.586V7C6 6.73478 6.10536 6.48043 6.29289 6.29289C6.48043 6.10536 6.73478 6 7 6Z" fill="#656084"/>
</svg>
