<svg width="17" height="17" viewBox="0 0 17 17" fill="none" xmlns="http://www.w3.org/2000/svg">
<path d="M9.428 12.999L11 9.46001L12.573 12.998H9.428V12.999ZM15.914 15.593L11.914 6.59301C11.8355 6.41614 11.7073 6.26585 11.5451 6.16036C11.3829 6.05488 11.1935 5.99873 11 5.99873C10.8065 5.99873 10.6171 6.05488 10.4549 6.16036C10.2927 6.26585 10.1645 6.41614 10.086 6.59301L8.128 10.999H8C6.724 10.999 5.76 10.699 5.035 10.283L5.047 10.271C6.339 8.82801 6.824 6.73501 6.987 4.99901H8C8.26522 4.99901 8.51957 4.89366 8.70711 4.70612C8.89464 4.51858 9 4.26423 9 3.99901C9 3.7338 8.89464 3.47944 8.70711 3.29191C8.51957 3.10437 8.26522 2.99901 8 2.99901H7.058C7.043 2.36901 7 1.94801 6.994 1.88901C6.97981 1.75847 6.94 1.63201 6.87685 1.51687C6.8137 1.40174 6.72844 1.30021 6.62598 1.21808C6.52351 1.13596 6.40584 1.07487 6.27972 1.03831C6.1536 1.00174 6.0215 0.99043 5.891 1.00501C5.6276 1.03444 5.38658 1.16703 5.22072 1.37375C5.05485 1.58048 4.97765 1.8445 5.006 2.10801C5.006 2.12101 5.041 2.46701 5.056 2.99801H1C0.734784 2.99801 0.48043 3.10337 0.292893 3.29091C0.105357 3.47844 0 3.7328 0 3.99801C0 4.26323 0.105357 4.51758 0.292893 4.70512C0.48043 4.89266 0.734784 4.99801 1 4.99801H4.98C4.837 6.36801 4.465 7.92001 3.56 8.93301C3.30161 8.57261 3.10243 8.17324 2.97 7.75001C2.90476 7.49302 2.74009 7.27247 2.51224 7.13688C2.28438 7.00129 2.01199 6.96177 1.755 7.02702C1.49801 7.09226 1.27745 7.25692 1.14187 7.48478C1.00628 7.71263 0.966757 7.98502 1.032 8.24201C1.15 8.71601 1.405 9.31201 1.81 9.92101C1.556 9.97101 1.288 9.99901 1 9.99901C0.734784 9.99901 0.48043 10.1044 0.292893 10.2919C0.105357 10.4794 0 10.7338 0 10.999C0 11.2642 0.105357 11.5186 0.292893 11.7061C0.48043 11.8937 0.734784 11.999 1 11.999C1.857 11.999 2.629 11.839 3.322 11.532C4.284 12.266 5.575 12.835 7.254 12.967L6.087 15.593C5.99219 15.8332 5.99385 16.1007 6.09163 16.3397C6.18941 16.5786 6.37575 16.7706 6.61172 16.8754C6.84768 16.9802 7.11503 16.9898 7.35789 16.9021C7.60076 16.8145 7.80036 16.6364 7.915 16.405L8.54 14.999H13.462L14.087 16.405C14.1947 16.6474 14.3942 16.8371 14.6418 16.9324C14.8893 17.0277 15.1646 17.0207 15.407 16.913C15.6494 16.8053 15.8391 16.6058 15.9344 16.3582C16.0296 16.1107 16.0227 15.8354 15.915 15.593H15.914Z" fill="#656084"/>
</svg>
