<svg xmlns="http://www.w3.org/2000/svg" xmlns:xlink="http://www.w3.org/1999/xlink" viewBox="0 0 219.43 45.41"><defs><style>.cls-1{fill-rule:evenodd;fill:url(#Безымянный_градиент);}.cls-2{fill:#1f1a17;}</style><linearGradient id="Безымянный_градиент" x1="-599.26" y1="405.97" x2="-606.63" y2="416.9" gradientTransform="matrix(3.54, 0, 0, -3.54, 2156.97, 1479.07)" gradientUnits="userSpaceOnUse"><stop offset="0" stop-color="#00923f"/><stop offset="1" stop-color="#84c225"/></linearGradient></defs><g id="Слой_2" data-name="Слой 2"><g id="Слой_1-2" data-name="Слой 1"><g id="Слой_1-3" data-name="Слой_1"><g id="_111536280" data-name=" 111536280"><path id="_111536424" data-name=" 111536424" class="cls-1" d="M11.35,0h22.7A11.38,11.38,0,0,1,45.4,11H27.19a2.5,2.5,0,0,0-2.29,1.63l-4.38,12L16.25,12.94a2.5,2.5,0,0,0-1.56-1.77h0A2.36,2.36,0,0,0,14,11a2.43,2.43,0,0,0-1,.14h0A2.49,2.49,0,0,0,11.41,13L7.14,24.69l-4.38-12h0l-2-5.42A11.39,11.39,0,0,1,11.35,0ZM45.41,16V34.05A11.39,11.39,0,0,1,34.05,45.41H11.35A11.39,11.39,0,0,1,0,34.05V19.49L4.75,32.54a2.47,2.47,0,0,0,1.54,1.7h0a2.62,2.62,0,0,0,1,.14A2.58,2.58,0,0,0,8,34.24H8a2.5,2.5,0,0,0,1.54-1.68l4.3-11.83,4.3,11.81a2.47,2.47,0,0,0,1.54,1.7h0a2.62,2.62,0,0,0,1,.14,2.58,2.58,0,0,0,.67-.14h0a2.5,2.5,0,0,0,1.54-1.68L29,16h4.4v16a2.48,2.48,0,0,0,2.47,2.47h0a2.48,2.48,0,0,0,2.47-2.47V16h7.12Z"/><polygon id="_111536304" data-name=" 111536304" class="cls-2" points="81.35 12.01 77.72 25.18 73.82 12.01 68.61 12.01 64.71 25.14 61.08 12.01 55.22 12.01 62.02 33.4 67.28 33.4 71.21 20.44 75.15 33.4 80.41 33.4 87.21 12.01 81.35 12.01"/><path id="_1115363041" data-name=" 1115363041" class="cls-2" d="M100.39,34a11.57,11.57,0,0,0,4.42-.87,11.2,11.2,0,0,0,6-6,11.72,11.72,0,0,0,0-8.91,11.2,11.2,0,0,0-6-6,11.66,11.66,0,0,0-8.84,0,11,11,0,0,0-3.59,2.39A11.13,11.13,0,0,0,90,18.25a11.72,11.72,0,0,0,0,8.91,11.13,11.13,0,0,0,2.41,3.58A11,11,0,0,0,96,33.13,11.5,11.5,0,0,0,100.39,34Zm0-5.39a5.92,5.92,0,0,1-3-.77,5.41,5.41,0,0,1-2-2.06,6.45,6.45,0,0,1,0-6.15,5.51,5.51,0,0,1,2-2.07,5.91,5.91,0,0,1,3-.76,6,6,0,0,1,3,.76,5.56,5.56,0,0,1,2.07,2.07,6.53,6.53,0,0,1,0,6.15,5.46,5.46,0,0,1-2.07,2.06A6,6,0,0,1,100.39,28.61Z"/><path id="_11153630412" data-name=" 11153630412" class="cls-2" d="M121.13,15.69V12h-5.52V33.4h5.52V23.17a6.25,6.25,0,0,1,.61-2.79,4.54,4.54,0,0,1,1.57-1.73,5.83,5.83,0,0,1,2.1-.84,7.55,7.55,0,0,1,2.22-.07V11.58A8.32,8.32,0,0,0,125,12a6.29,6.29,0,0,0-2.29,1.33,6.17,6.17,0,0,0-1.58,2.36Z"/><polygon id="_111536304123" data-name=" 111536304123" class="cls-2" points="150.56 33.4 141.71 22.58 150.3 12.01 143.72 12.01 136.36 21.42 136.36 3.46 130.84 3.46 130.84 33.4 136.36 33.4 136.36 23.69 144.14 33.4 150.56 33.4"/><path id="_1115363041234" data-name=" 1115363041234" class="cls-2" d="M165.53,17.31V12H160.7V6l-5.52,1.67V12h-3.72v5.3h3.72v8.9a10.8,10.8,0,0,0,.53,3.68,5,5,0,0,0,1.74,2.4,6.89,6.89,0,0,0,3.2,1.16,20.58,20.58,0,0,0,4.88-.05v-5c-.79.05-1.49.07-2.09.06a5.3,5.3,0,0,1-1.51-.22,1.62,1.62,0,0,1-.92-.68,2.44,2.44,0,0,1-.31-1.34v-8.9Z"/><path id="_11153630412345" data-name=" 11153630412345" class="cls-2" d="M186,12v2.52a8,8,0,0,0-2.89-2.28,10,10,0,0,0-8.1,0,10.13,10.13,0,0,0-3.31,2.39,11.18,11.18,0,0,0-2.24,3.58,12.37,12.37,0,0,0,0,8.91,11.18,11.18,0,0,0,2.24,3.58A10.13,10.13,0,0,0,175,33.13a10,10,0,0,0,8.1,0A8,8,0,0,0,186,30.87V33.4h5.52V12Zm-6,16.73a6.2,6.2,0,0,1-3-.77A5.44,5.44,0,0,1,175,25.86a6.77,6.77,0,0,1,0-6.31A5.44,5.44,0,0,1,177,17.44a6.2,6.2,0,0,1,3-.77,6.3,6.3,0,0,1,3.07.77,5.39,5.39,0,0,1,2.1,2.11,6.77,6.77,0,0,1,0,6.31,5.39,5.39,0,0,1-2.1,2.11A6.3,6.3,0,0,1,180.07,28.74Z"/><path id="_111536304123456" data-name=" 111536304123456" class="cls-2" d="M209,11.41a9.61,9.61,0,0,0-4.06.82,7.85,7.85,0,0,0-2.87,2.3V12h-5.52V42h5.52V30.87a7.85,7.85,0,0,0,2.87,2.3A9.6,9.6,0,0,0,209,34a9.88,9.88,0,0,0,4-.87,10.38,10.38,0,0,0,3.32-2.39,11,11,0,0,0,2.24-3.58,12.37,12.37,0,0,0,0-8.91,11,11,0,0,0-2.24-3.58A10.38,10.38,0,0,0,213,12.28a9.88,9.88,0,0,0-4-.87Zm-1,17.33a6.2,6.2,0,0,1-3-.77,5.44,5.44,0,0,1-2.09-2.11,6.77,6.77,0,0,1,0-6.31,5.44,5.44,0,0,1,2.09-2.11,6.2,6.2,0,0,1,3-.77,6.3,6.3,0,0,1,3.07.77,5.3,5.3,0,0,1,2.09,2.11,6.7,6.7,0,0,1,0,6.31A5.3,5.3,0,0,1,211,28,6.3,6.3,0,0,1,208,28.74Z"/></g></g></g></g></svg>