<svg width="21" height="20" viewBox="0 0 21 20" fill="none" xmlns="http://www.w3.org/2000/svg">
<path fill-rule="evenodd" clip-rule="evenodd" d="M5.06904 0H15.2071C16.5239 0.00269911 17.7881 0.509244 18.7337 1.41294C19.6792 2.31664 20.2322 3.54696 20.2762 4.84475H12.1434C11.9196 4.84951 11.7024 4.92051 11.52 5.04853C11.3376 5.17655 11.1985 5.35567 11.1206 5.56265L9.16447 10.8478L7.25744 5.69919C7.21535 5.52273 7.12974 5.35925 7.0082 5.22325C6.88666 5.08726 6.73295 4.98296 6.56073 4.91962V4.91962C6.46243 4.87947 6.35853 4.85422 6.25256 4.84475C6.10096 4.83424 5.9488 4.85524 5.80595 4.90641V4.90641C5.62609 4.97112 5.46622 5.08054 5.34181 5.22405C5.21741 5.36757 5.13268 5.54033 5.09584 5.72561L3.18881 10.8743L1.23265 5.58908L0.339425 3.20194C0.709638 2.26096 1.35907 1.45199 2.20286 0.880744C3.04666 0.3095 4.04556 0.0025483 5.06904 0V0ZM20.2806 7.04691V14.9967C20.2771 16.3226 19.7414 17.5932 18.7907 18.5307C17.84 19.4683 16.5516 19.9965 15.2071 20H5.06904C3.72533 19.9954 2.43806 19.4666 1.48832 18.5292C0.538581 17.5917 0.00353095 16.3218 0 14.9967L0 8.58401L2.12141 14.3316C2.1661 14.502 2.25202 14.6591 2.37182 14.7895C2.49161 14.9199 2.64169 15.0197 2.80919 15.0804V15.0804C2.9526 15.1293 3.10428 15.1502 3.2558 15.142C3.36391 15.1363 3.47066 15.1155 3.57289 15.0804V15.0804C3.73879 15.0196 3.88767 14.9208 4.00726 14.7922C4.12684 14.6636 4.2137 14.5087 4.26068 14.3405L6.18111 9.13015L8.10154 14.3316C8.14623 14.502 8.23216 14.6591 8.35195 14.7895C8.47174 14.9199 8.62182 15.0197 8.78932 15.0804V15.0804C8.93273 15.1293 9.08441 15.1502 9.23593 15.142C9.33801 15.1347 9.43864 15.1139 9.53516 15.0804C9.70106 15.0196 9.84994 14.9208 9.96952 14.7922C10.0891 14.6636 10.176 14.5087 10.2229 14.3405L12.9517 7.04691H14.9168V14.0938C14.918 14.382 15.0346 14.658 15.2412 14.8618C15.4479 15.0655 15.7278 15.1805 16.02 15.1817V15.1817C16.3122 15.1805 16.5921 15.0655 16.7987 14.8618C17.0053 14.658 17.1219 14.382 17.1231 14.0938V7.04691H20.303H20.2806Z" fill="url(#paint0_linear)"/>
<defs>
<linearGradient id="paint0_linear" x1="15.8947" y1="18.47" x2="4.46478" y2="1.2811" gradientUnits="userSpaceOnUse">
<stop stop-color="#00923F"/>
<stop offset="1" stop-color="#84C225"/>
</linearGradient>
</defs>
</svg>
