<svg width="20" height="22" viewBox="0 0 20 22" fill="none" xmlns="http://www.w3.org/2000/svg">
<path d="M20 1.25V2.75C20 2.94891 19.921 3.13968 19.7803 3.28033C19.6397 3.42098 19.4489 3.5 19.25 3.5H17V20.75C17 20.9489 16.921 21.1397 16.7803 21.2803C16.6397 21.421 16.4489 21.5 16.25 21.5H14.75C14.5511 21.5 14.3603 21.421 14.2197 21.2803C14.079 21.1397 14 20.9489 14 20.75V3.5H12.5V20.75C12.5 20.9489 12.421 21.1397 12.2803 21.2803C12.1397 21.421 11.9489 21.5 11.75 21.5H10.25C10.0511 21.5 9.86032 21.421 9.71967 21.2803C9.57902 21.1397 9.5 20.9489 9.5 20.75V15.5H8C6.01088 15.5 4.10322 14.7098 2.6967 13.3033C1.29018 11.8968 0.5 9.98912 0.5 8C0.5 6.01088 1.29018 4.10322 2.6967 2.6967C4.10322 1.29018 6.01088 0.5 8 0.5H19.25C19.4489 0.5 19.6397 0.579018 19.7803 0.71967C19.921 0.860322 20 1.05109 20 1.25Z" fill="black"/>
</svg>
