<svg width="18" height="22" viewBox="0 0 18 22" fill="none" xmlns="http://www.w3.org/2000/svg">
<path d="M15.6323 10.1562C16.3462 9.28429 16.7865 8.22088 16.898 7.09953C17.2439 3.52297 14.4375 0.5 10.9416 0.5H1.59375C1.39484 0.5 1.20407 0.579018 1.06342 0.71967C0.922768 0.860322 0.84375 1.05109 0.84375 1.25V3.5C0.84375 3.69891 0.922768 3.88968 1.06342 4.03033C1.20407 4.17098 1.39484 4.25 1.59375 4.25H3.08766V17.75H1.59375C1.39484 17.75 1.20407 17.829 1.06342 17.9697C0.922768 18.1103 0.84375 18.3011 0.84375 18.5V20.75C0.84375 20.9489 0.922768 21.1397 1.06342 21.2803C1.20407 21.421 1.39484 21.5 1.59375 21.5H11.4056C14.7244 21.5 17.6934 19.0742 18.015 15.7625C18.2372 13.4914 17.2467 11.4472 15.6323 10.1562ZM6.82781 4.25H10.9416C11.5383 4.25 12.1106 4.48705 12.5326 4.90901C12.9545 5.33097 13.1916 5.90326 13.1916 6.5C13.1916 7.09674 12.9545 7.66903 12.5326 8.09099C12.1106 8.51295 11.5383 8.75 10.9416 8.75H6.82781V4.25ZM10.9416 17.75H6.82781V12.5H10.9416C11.6378 12.5 12.3054 12.7766 12.7977 13.2688C13.29 13.7611 13.5666 14.4288 13.5666 15.125C13.5666 15.8212 13.29 16.4889 12.7977 16.9812C12.3054 17.4734 11.6378 17.75 10.9416 17.75Z" fill="black"/>
</svg>
