<svg width="21" height="22" viewBox="0 0 21 22" fill="none" xmlns="http://www.w3.org/2000/svg">
<path d="M0.601406 15.5H12.8986C12.9776 15.5001 13.0558 15.4845 13.1288 15.4543C13.2018 15.4241 13.2681 15.3798 13.324 15.324C13.3798 15.2681 13.4241 15.2018 13.4543 15.1288C13.4845 15.0558 13.5001 14.9776 13.5 14.8986V13.1014C13.5001 13.0224 13.4845 12.9442 13.4543 12.8712C13.4241 12.7982 13.3798 12.7319 13.324 12.676C13.2681 12.6202 13.2018 12.5759 13.1288 12.5457C13.0558 12.5154 12.9776 12.4999 12.8986 12.5H0.601406C0.522411 12.4999 0.444179 12.5154 0.371185 12.5457C0.298192 12.5759 0.231869 12.6202 0.176011 12.676C0.120153 12.7319 0.0758556 12.7982 0.045654 12.8712C0.0154523 12.9442 -6.14598e-05 13.0224 1.82979e-07 13.1014V14.8986C-6.14598e-05 14.9776 0.0154523 15.0558 0.045654 15.1288C0.0758556 15.2018 0.120153 15.2681 0.176011 15.324C0.231869 15.3798 0.298192 15.4241 0.371185 15.4543C0.444179 15.4845 0.522411 15.5001 0.601406 15.5ZM0.601406 3.5H12.8986C12.9776 3.50006 13.0558 3.48455 13.1288 3.45435C13.2018 3.42414 13.2681 3.37985 13.324 3.32399C13.3798 3.26813 13.4241 3.20181 13.4543 3.12881C13.4845 3.05582 13.5001 2.97759 13.5 2.89859V1.10141C13.5001 1.02241 13.4845 0.944179 13.4543 0.871185C13.4241 0.798192 13.3798 0.731868 13.324 0.67601C13.2681 0.620152 13.2018 0.575856 13.1288 0.545654C13.0558 0.515452 12.9776 0.499939 12.8986 0.5H0.601406C0.522411 0.499939 0.444179 0.515452 0.371185 0.545654C0.298192 0.575856 0.231869 0.620152 0.176011 0.67601C0.120153 0.731868 0.0758556 0.798192 0.045654 0.871185C0.0154523 0.944179 -6.14598e-05 1.02241 1.82979e-07 1.10141V2.89859C-6.14598e-05 2.97759 0.0154523 3.05582 0.045654 3.12881C0.0758556 3.20181 0.120153 3.26813 0.176011 3.32399C0.231869 3.37985 0.298192 3.42414 0.371185 3.45435C0.444179 3.48455 0.522411 3.50006 0.601406 3.5ZM20.25 6.5H0.75C0.551088 6.5 0.360322 6.57902 0.21967 6.71967C0.0790178 6.86032 1.82979e-07 7.05109 1.82979e-07 7.25V8.75C1.82979e-07 8.94891 0.0790178 9.13968 0.21967 9.28033C0.360322 9.42098 0.551088 9.5 0.75 9.5H20.25C20.4489 9.5 20.6397 9.42098 20.7803 9.28033C20.921 9.13968 21 8.94891 21 8.75V7.25C21 7.05109 20.921 6.86032 20.7803 6.71967C20.6397 6.57902 20.4489 6.5 20.25 6.5ZM20.25 18.5H0.75C0.551088 18.5 0.360322 18.579 0.21967 18.7197C0.0790178 18.8603 1.82979e-07 19.0511 1.82979e-07 19.25V20.75C1.82979e-07 20.9489 0.0790178 21.1397 0.21967 21.2803C0.360322 21.421 0.551088 21.5 0.75 21.5H20.25C20.4489 21.5 20.6397 21.421 20.7803 21.2803C20.921 21.1397 21 20.9489 21 20.75V19.25C21 19.0511 20.921 18.8603 20.7803 18.7197C20.6397 18.579 20.4489 18.5 20.25 18.5Z" fill="black"/>
</svg>
