<svg width="24" height="22" viewBox="0 0 24 22" fill="none" xmlns="http://www.w3.org/2000/svg">
<path d="M2.89547 17.7969L3.71578 16.8523C3.87904 16.6703 3.96437 16.4315 3.95344 16.1872V16.032C3.95344 15.6875 3.77344 15.5 3.42188 15.5H0.75C0.650544 15.5 0.555161 15.5395 0.484835 15.6098C0.414509 15.6802 0.375 15.7755 0.375 15.875V16.625C0.375 16.7245 0.414509 16.8198 0.484835 16.8902C0.555161 16.9605 0.650544 17 0.75 17H1.82016C1.63831 17.1832 1.46619 17.3758 1.30453 17.577L1.04156 17.9052C0.854062 18.1428 0.795469 18.38 0.910313 18.6027L0.959531 18.6931C1.10016 18.9631 1.25438 19.0625 1.53375 19.0625H1.75547C2.23969 19.0625 2.50266 19.1769 2.50266 19.4886C2.50266 19.7098 2.30578 19.8739 1.82953 19.8739C1.58069 19.8719 1.33453 19.8223 1.10438 19.7277C0.800156 19.5458 0.554062 19.5636 0.373125 19.8739L0.111094 20.3103C-0.0632813 20.5977 -0.0384375 20.8597 0.234375 21.0575C0.595781 21.2773 1.18969 21.5 1.96875 21.5C3.57 21.5 4.24219 20.4336 4.24219 19.4319C4.24078 18.7578 3.81469 18.0369 2.89547 17.7969ZM23.25 9.5H8.25C8.05109 9.5 7.86032 9.57902 7.71967 9.71967C7.57902 9.86032 7.5 10.0511 7.5 10.25V11.75C7.5 11.9489 7.57902 12.1397 7.71967 12.2803C7.86032 12.421 8.05109 12.5 8.25 12.5H23.25C23.4489 12.5 23.6397 12.421 23.7803 12.2803C23.921 12.1397 24 11.9489 24 11.75V10.25C24 10.0511 23.921 9.86032 23.7803 9.71967C23.6397 9.57902 23.4489 9.5 23.25 9.5ZM23.25 2H8.25C8.05109 2 7.86032 2.07902 7.71967 2.21967C7.57902 2.36032 7.5 2.55109 7.5 2.75V4.25C7.5 4.44891 7.57902 4.63968 7.71967 4.78033C7.86032 4.92098 8.05109 5 8.25 5H23.25C23.4489 5 23.6397 4.92098 23.7803 4.78033C23.921 4.63968 24 4.44891 24 4.25V2.75C24 2.55109 23.921 2.36032 23.7803 2.21967C23.6397 2.07902 23.4489 2 23.25 2ZM23.25 17H8.25C8.05109 17 7.86032 17.079 7.71967 17.2197C7.57902 17.3603 7.5 17.5511 7.5 17.75V19.25C7.5 19.4489 7.57902 19.6397 7.71967 19.7803C7.86032 19.921 8.05109 20 8.25 20H23.25C23.4489 20 23.6397 19.921 23.7803 19.7803C23.921 19.6397 24 19.4489 24 19.25V17.75C24 17.5511 23.921 17.3603 23.7803 17.2197C23.6397 17.079 23.4489 17 23.25 17ZM0.75 6.5H3.75C3.84946 6.5 3.94484 6.46049 4.01516 6.39017C4.08549 6.31984 4.125 6.22446 4.125 6.125V5.375C4.125 5.27554 4.08549 5.18016 4.01516 5.10983C3.94484 5.03951 3.84946 5 3.75 5H3V0.875C3 0.775544 2.96049 0.680161 2.89016 0.609835C2.81984 0.539509 2.72446 0.5 2.625 0.5H1.5C1.43049 0.500124 1.36239 0.519564 1.30329 0.55615C1.24419 0.592736 1.19642 0.645027 1.16531 0.707187L0.790313 1.45719C0.761728 1.51431 0.748209 1.57779 0.751036 1.6416C0.753863 1.70541 0.772943 1.76744 0.806467 1.82181C0.839991 1.87618 0.886847 1.92109 0.942593 1.95227C0.998338 1.98346 1.06113 1.99989 1.125 2H1.5V5H0.75C0.650544 5 0.555161 5.03951 0.484835 5.10983C0.414509 5.18016 0.375 5.27554 0.375 5.375V6.125C0.375 6.22446 0.414509 6.31984 0.484835 6.39017C0.555161 6.46049 0.650544 6.5 0.75 6.5ZM0.566719 14H3.75C3.84946 14 3.94484 13.9605 4.01516 13.8902C4.08549 13.8198 4.125 13.7245 4.125 13.625V12.875C4.125 12.7755 4.08549 12.6802 4.01516 12.6098C3.94484 12.5395 3.84946 12.5 3.75 12.5H1.93687C2.09109 12.0177 4.20281 11.6244 4.20281 9.85437C4.20281 8.49219 3.03094 8 2.11828 8C1.11703 8 0.533906 8.46875 0.221719 8.87891C0.016875 9.14094 0.0810938 9.38703 0.352969 9.59937L0.755156 9.92188C1.01813 10.1356 1.27078 10.0377 1.51078 9.8075C1.62916 9.69151 1.78848 9.62684 1.95422 9.6275C2.11031 9.6275 2.38922 9.70063 2.38922 10.0377C2.39062 10.6339 0 11.0614 0 13.2777V13.4652C0 13.8125 0.238125 14 0.566719 14Z" fill="black"/>
</svg>
