<svg width="15" height="22" viewBox="0 0 15 22" fill="none" xmlns="http://www.w3.org/2000/svg">
<path d="M15 1.25V2.75C15 2.94891 14.921 3.13968 14.7803 3.28033C14.6397 3.42098 14.4489 3.5 14.25 3.5H11.3081L7.55813 18.5H9.75C9.94891 18.5 10.1397 18.579 10.2803 18.7197C10.421 18.8603 10.5 19.0511 10.5 19.25V20.75C10.5 20.9489 10.421 21.1397 10.2803 21.2803C10.1397 21.421 9.94891 21.5 9.75 21.5H0.75C0.551088 21.5 0.360322 21.421 0.21967 21.2803C0.0790176 21.1397 0 20.9489 0 20.75V19.25C0 19.0511 0.0790176 18.8603 0.21967 18.7197C0.360322 18.579 0.551088 18.5 0.75 18.5H3.69187L7.44187 3.5H5.25C5.05109 3.5 4.86032 3.42098 4.71967 3.28033C4.57902 3.13968 4.5 2.94891 4.5 2.75V1.25C4.5 1.05109 4.57902 0.860322 4.71967 0.71967C4.86032 0.579018 5.05109 0.5 5.25 0.5H14.25C14.4489 0.5 14.6397 0.579018 14.7803 0.71967C14.921 0.860322 15 1.05109 15 1.25Z" fill="black"/>
</svg>
